<svg width="24" height="25" viewBox="0 0 24 25" fill="none" xmlns="http://www.w3.org/2000/svg">
<path d="M11.9998 14.9038C11.9447 14.9038 11.8903 14.8916 11.8405 14.8682L0.215471 9.39881C0.151047 9.36853 0.0965737 9.32053 0.0584179 9.26043C0.020262 9.20034 0 9.13062 0 9.05943C0 8.98825 0.020262 8.91853 0.0584179 8.85843C0.0965737 8.79834 0.151047 8.75034 0.215471 8.72006L11.8405 3.24881C11.8903 3.2254 11.9448 3.21326 11.9998 3.21326C12.0549 3.21326 12.1094 3.2254 12.1592 3.24881L23.7842 8.72006C23.8486 8.75034 23.9031 8.79834 23.9413 8.85843C23.9794 8.91853 23.9997 8.98825 23.9997 9.05943C23.9997 9.13062 23.9794 9.20034 23.9413 9.26043C23.9031 9.32053 23.8486 9.36853 23.7842 9.39881L12.1592 14.8682C12.1094 14.8916 12.0549 14.9038 11.9998 14.9038ZM1.2561 9.05943L11.9998 14.1219L22.7436 9.05943L11.9998 4.00256L1.2561 9.05943Z" fill="#248D88"/>
<path d="M4.5 15.5C4.40054 15.5 4.30516 15.4605 4.23484 15.3902C4.16451 15.3198 4.125 15.2245 4.125 15.125V11.1875C4.125 11.088 4.16451 10.9927 4.23484 10.9223C4.30516 10.852 4.40054 10.8125 4.5 10.8125C4.59946 10.8125 4.69484 10.852 4.76516 10.9223C4.83549 10.9927 4.875 11.088 4.875 11.1875V15.125C4.875 15.2245 4.83549 15.3198 4.76516 15.3902C4.69484 15.4605 4.59946 15.5 4.5 15.5Z" fill="#248D88"/>
<path d="M19.5 15.5C19.4005 15.5 19.3052 15.4605 19.2348 15.3902C19.1645 15.3198 19.125 15.2245 19.125 15.125V11.1875C19.125 11.088 19.1645 10.9927 19.2348 10.9223C19.3052 10.852 19.4005 10.8125 19.5 10.8125C19.5995 10.8125 19.6948 10.852 19.7652 10.9223C19.8355 10.9927 19.875 11.088 19.875 11.1875V15.125C19.875 15.2245 19.8355 15.3198 19.7652 15.3902C19.6948 15.4605 19.5995 15.5 19.5 15.5Z" fill="#248D88"/>
<path d="M12 19.3494C7.75875 19.3494 4.125 17.0263 4.125 15.125C4.125 15.0255 4.16451 14.9302 4.23484 14.8598C4.30516 14.7895 4.40054 14.75 4.5 14.75C4.59946 14.75 4.69484 14.7895 4.76516 14.8598C4.83549 14.9302 4.875 15.0255 4.875 15.125C4.875 16.3138 7.875 18.5994 12 18.5994C16.125 18.5994 19.125 16.3138 19.125 15.125C19.125 15.0255 19.1645 14.9302 19.2348 14.8598C19.3052 14.7895 19.4005 14.75 19.5 14.75C19.5995 14.75 19.6948 14.7895 19.7652 14.8598C19.8355 14.9302 19.875 15.0255 19.875 15.125C19.875 17.0263 16.2413 19.3494 12 19.3494Z" fill="#248D88"/>
<path d="M17.6246 19.4375C17.5252 19.4375 17.4298 19.398 17.3594 19.3277C17.2891 19.2574 17.2496 19.162 17.2496 19.0625V11.9825L11.8327 9.27314C11.7871 9.25218 11.7461 9.22227 11.7123 9.18518C11.6784 9.14809 11.6524 9.10457 11.6356 9.05722C11.6189 9.00987 11.6119 8.95964 11.615 8.90951C11.618 8.85938 11.6311 8.81039 11.6535 8.76542C11.6758 8.72045 11.707 8.68043 11.7451 8.64774C11.7832 8.61504 11.8275 8.59034 11.8754 8.57509C11.9232 8.55983 11.9736 8.55435 12.0236 8.55895C12.0737 8.56356 12.1222 8.57816 12.1665 8.60189L17.7915 11.4144C17.854 11.4454 17.9065 11.4933 17.9433 11.5526C17.9801 11.6119 17.9996 11.6803 17.9996 11.75V19.0625C17.9996 19.162 17.9601 19.2574 17.8898 19.3277C17.8194 19.398 17.7241 19.4375 17.6246 19.4375Z" fill="#248D88"/>
<path d="M17.625 21.125C17.4025 21.125 17.185 21.059 17 20.9354C16.815 20.8118 16.6708 20.6361 16.5856 20.4305C16.5005 20.225 16.4782 19.9988 16.5216 19.7805C16.565 19.5623 16.6722 19.3618 16.8295 19.2045C16.9868 19.0472 17.1873 18.94 17.4055 18.8966C17.6238 18.8532 17.85 18.8755 18.0555 18.9606C18.2611 19.0458 18.4368 19.19 18.5604 19.375C18.684 19.56 18.75 19.7775 18.75 20C18.75 20.2984 18.6315 20.5845 18.4205 20.7955C18.2095 21.0065 17.9234 21.125 17.625 21.125ZM17.625 19.625C17.5508 19.625 17.4783 19.647 17.4167 19.6882C17.355 19.7294 17.3069 19.788 17.2785 19.8565C17.2502 19.925 17.2427 20.0004 17.2572 20.0732C17.2717 20.1459 17.3074 20.2127 17.3598 20.2652C17.4123 20.3176 17.4791 20.3533 17.5518 20.3678C17.6246 20.3823 17.7 20.3748 17.7685 20.3465C17.837 20.3181 17.8956 20.27 17.9368 20.2083C17.978 20.1467 18 20.0742 18 20C18 19.9005 17.9605 19.8052 17.8902 19.7348C17.8198 19.6645 17.7245 19.625 17.625 19.625Z" fill="#248D88"/>
<path d="M18.1869 23.375H17.0619C17.0099 23.3752 16.9583 23.3646 16.9106 23.3437C16.8629 23.3229 16.8201 23.2924 16.7848 23.2542C16.7495 23.2159 16.7226 23.1707 16.7058 23.1214C16.6889 23.0722 16.6825 23.02 16.6869 22.9681L16.8744 20.7181C16.8781 20.6187 16.9212 20.5248 16.9942 20.4571C17.0671 20.3894 17.164 20.3535 17.2635 20.3572C17.3629 20.3609 17.4568 20.404 17.5245 20.477C17.5922 20.5499 17.6281 20.6468 17.6244 20.7463C17.6207 20.6468 17.6566 20.5499 17.7243 20.477C17.792 20.404 17.8859 20.3609 17.9853 20.3572C18.0848 20.3535 18.1817 20.3894 18.2546 20.4571C18.3276 20.5248 18.3707 20.6187 18.3744 20.7181L18.5619 22.9681C18.5663 23.02 18.5599 23.0722 18.5431 23.1214C18.5262 23.1707 18.4993 23.2159 18.464 23.2542C18.4287 23.2924 18.3859 23.3229 18.3382 23.3437C18.2905 23.3646 18.239 23.3752 18.1869 23.375ZM17.4688 22.625H17.78L17.6244 20.7819C17.6235 20.7725 17.6235 20.7631 17.6244 20.7538C17.6253 20.7631 17.6253 20.7725 17.6244 20.7819L17.4688 22.625Z" fill="#248D88"/>
</svg>
