<svg width="24" height="25" viewBox="0 0 24 25" fill="none" xmlns="http://www.w3.org/2000/svg">
<path d="M12 1.25C5.79568 1.25 0.75 6.29568 0.75 12.5C0.75 18.7043 5.79568 23.75 12 23.75C18.2043 23.75 23.25 18.7043 23.25 12.5C23.25 6.29568 18.2043 1.25 12 1.25ZM12 2.75C17.3937 2.75 21.7559 7.10634 21.7559 12.5C21.7559 17.8937 17.3937 22.2559 12 22.2559C6.60634 22.2559 2.25 17.8937 2.25 12.5C2.25 7.10634 6.60634 2.75 12 2.75ZM11.9897 6.50439C11.7916 6.50788 11.6029 6.58964 11.4648 6.73182C11.3268 6.87399 11.2506 7.06502 11.2529 7.26318V7.89453C10.0419 8.12171 9.00586 8.90151 9.00586 10.2529C9.00586 11.1904 9.42849 11.9487 9.99609 12.3901C10.5637 12.8316 11.2046 13.0273 11.7671 13.2148C12.3296 13.4023 12.8152 13.5816 13.0913 13.7964C13.3675 14.0112 13.5 14.1919 13.5 14.7544C13.5 16.0044 10.5059 16.0044 10.5059 14.7544C10.5081 14.6545 10.4903 14.5552 10.4536 14.4622C10.4169 14.3693 10.362 14.2846 10.2922 14.2132C10.2223 14.1418 10.1389 14.085 10.0468 14.0463C9.95468 14.0075 9.85577 13.9876 9.75586 13.9876C9.65594 13.9876 9.55703 14.0075 9.46494 14.0463C9.37284 14.085 9.28941 14.1418 9.21955 14.2132C9.14968 14.2846 9.09479 14.3693 9.0581 14.4622C9.0214 14.5552 9.00364 14.6545 9.00586 14.7544C9.00586 16.1048 10.0429 16.886 11.2529 17.1143V17.7427C11.2507 17.8426 11.2685 17.9419 11.3052 18.0348C11.3419 18.1278 11.3968 18.2124 11.4666 18.2839C11.5365 18.3553 11.6199 18.412 11.712 18.4508C11.8041 18.4895 11.903 18.5095 12.0029 18.5095C12.1028 18.5095 12.2018 18.4895 12.2938 18.4508C12.3859 18.412 12.4694 18.3553 12.5392 18.2839C12.6091 18.2124 12.664 18.1278 12.7007 18.0348C12.7374 17.9419 12.7551 17.8426 12.7529 17.7427V17.1143C13.9632 16.8862 15.0015 16.1049 15.0015 14.7544C15.0015 13.8169 14.5774 13.0587 14.0098 12.6172C13.4422 12.1757 12.8013 11.9785 12.2388 11.791C11.6763 11.6035 11.1907 11.4257 10.9145 11.2109C10.6384 10.9962 10.5059 10.8154 10.5059 10.2529C10.5059 9.00293 13.5 9.00293 13.5 10.2529C13.5 10.452 13.5791 10.643 13.7199 10.7838C13.8607 10.9246 14.0516 11.0037 14.2507 11.0037C14.4498 11.0037 14.6408 10.9246 14.7816 10.7838C14.9224 10.643 15.0015 10.452 15.0015 10.2529C15.0015 8.90354 13.9629 8.12452 12.7529 7.896V7.26318C12.7541 7.16284 12.7351 7.06328 12.6972 6.97039C12.6592 6.87751 12.6029 6.7932 12.5318 6.72244C12.4606 6.65169 12.376 6.59593 12.2829 6.55848C12.1898 6.52102 12.0901 6.50263 11.9897 6.50439H11.9897Z" fill="#248D88"/>
</svg>
