<svg width="25" height="21" viewBox="0 0 25 21" fill="none" xmlns="http://www.w3.org/2000/svg">
<path d="M12.5004 17.0168C12.4658 17.0174 12.4314 17.0111 12.3997 16.9983C9.20402 15.7783 5.6189 15.7783 2.42324 16.9983C2.3832 17.014 2.33961 17.0201 2.29637 17.0163C2.25313 17.0124 2.21161 16.9986 2.17552 16.9762C2.1393 16.9535 2.10961 16.9229 2.08906 16.8871C2.06851 16.8513 2.05771 16.8114 2.05762 16.7708V2.68061C2.05762 2.63184 2.07323 2.58417 2.10248 2.54366C2.13173 2.50314 2.17329 2.47162 2.22188 2.45309C5.54621 1.1823 9.27671 1.1823 12.601 2.45309C12.6496 2.47162 12.6912 2.50314 12.7204 2.54366C12.7497 2.58417 12.7653 2.63184 12.7653 2.68061V16.7708C12.7655 16.8031 12.7587 16.8352 12.7455 16.8651C12.7322 16.895 12.7127 16.9222 12.6881 16.9451C12.6635 16.968 12.6342 16.9861 12.602 16.9984C12.5697 17.0107 12.5352 17.0169 12.5004 17.0168ZM2.5875 2.84663V16.4092C5.69623 15.3188 9.12669 15.3188 12.2354 16.4092V2.84663C9.1366 1.70693 5.68632 1.70693 2.5875 2.84663Z" fill="#248D88"/>
<path d="M4.07846 5.42305C4.01607 5.42328 3.95559 5.40305 3.90768 5.36593C3.85978 5.32881 3.82752 5.27719 3.81659 5.22015C3.80567 5.16312 3.81678 5.10434 3.84796 5.05416C3.87914 5.00399 3.9284 4.96564 3.98706 4.94588C6.19692 4.18992 8.62466 4.18992 10.8345 4.94588C10.8672 4.95702 10.8972 4.97404 10.9229 4.99595C10.9485 5.01787 10.9692 5.04425 10.9838 5.0736C10.9985 5.10295 11.0068 5.13469 11.0082 5.16701C11.0096 5.19932 11.0042 5.23158 10.9922 5.26194C10.9802 5.29231 10.9618 5.32018 10.9382 5.34397C10.9146 5.36775 10.8862 5.38699 10.8546 5.40058C10.823 5.41417 10.7888 5.42185 10.754 5.42317C10.7192 5.42449 10.6844 5.41944 10.6517 5.4083C8.56002 4.69174 6.26155 4.69174 4.16987 5.4083C4.14051 5.41795 4.10961 5.42294 4.07846 5.42305Z" fill="#248D88"/>
<path d="M4.07846 8.03023C4.01607 8.03045 3.95559 8.01022 3.90768 7.9731C3.85978 7.93598 3.82752 7.88436 3.81659 7.82733C3.80567 7.77029 3.81678 7.71151 3.84796 7.66134C3.87914 7.61116 3.9284 7.57281 3.98706 7.55305C6.19661 6.79547 8.62497 6.79547 10.8345 7.55305C10.8686 7.5631 10.9002 7.57947 10.9274 7.60117C10.9545 7.62287 10.9766 7.64944 10.9923 7.6793C11.0081 7.70915 11.0172 7.74166 11.019 7.77486C11.0209 7.80806 11.0154 7.84126 11.0031 7.87245C10.9907 7.90365 10.9716 7.9322 10.9471 7.95637C10.9225 7.98054 10.8929 7.99983 10.86 8.01309C10.8272 8.02634 10.7918 8.03327 10.756 8.03347C10.7202 8.03367 10.6847 8.02712 10.6517 8.01424C8.56003 7.29768 6.26155 7.29768 4.16987 8.01424C4.14076 8.02488 4.10975 8.0303 4.07846 8.03023Z" fill="#248D88"/>
<path d="M4.07883 10.6367C4.01706 10.6361 3.95744 10.6156 3.91028 10.5785C3.86311 10.5415 3.83136 10.4903 3.82052 10.4339C3.80968 10.3774 3.82042 10.3192 3.8509 10.2694C3.88137 10.2195 3.92966 10.181 3.98742 10.1607C6.19697 9.40313 8.62533 9.40313 10.8349 10.1607C10.869 10.1708 10.9006 10.1871 10.9277 10.2088C10.9548 10.2305 10.977 10.2571 10.9927 10.287C11.0085 10.3168 11.0175 10.3493 11.0194 10.3825C11.0212 10.4157 11.0158 10.4489 11.0034 10.4801C10.9911 10.5113 10.972 10.5399 10.9474 10.564C10.9228 10.5882 10.8932 10.6075 10.8604 10.6208C10.8276 10.634 10.7922 10.6409 10.7564 10.6411C10.7206 10.6413 10.6851 10.6348 10.6521 10.6219C8.56039 9.90535 6.26191 9.90535 4.17023 10.6219C4.14087 10.6316 4.10997 10.6366 4.07883 10.6367Z" fill="#248D88"/>
<path d="M4.07846 13.2437C4.01607 13.244 3.95559 13.2237 3.90768 13.1866C3.85978 13.1495 3.82752 13.0979 3.81659 13.0408C3.80567 12.9838 3.81678 12.925 3.84796 12.8748C3.87914 12.8247 3.9284 12.7863 3.98706 12.7666C6.19692 12.0106 8.62466 12.0106 10.8345 12.7666C10.8672 12.7777 10.8972 12.7947 10.9229 12.8166C10.9485 12.8385 10.9692 12.8649 10.9838 12.8943C10.9985 12.9236 11.0068 12.9554 11.0082 12.9877C11.0096 13.02 11.0042 13.0523 10.9922 13.0826C10.9802 13.113 10.9618 13.1409 10.9382 13.1646C10.9146 13.1884 10.8862 13.2077 10.8546 13.2213C10.823 13.2348 10.7888 13.2425 10.754 13.2438C10.7192 13.2452 10.6844 13.2401 10.6517 13.229C8.56002 12.5124 6.26155 12.5124 4.16987 13.229C4.14051 13.2386 4.10961 13.2436 4.07846 13.2437Z" fill="#248D88"/>
<path d="M11.4124 17.932H0.952447C0.882179 17.932 0.81479 17.9061 0.765103 17.8599C0.715417 17.8138 0.687503 17.7512 0.687503 17.686V3.76062C0.687328 3.72827 0.694061 3.69621 0.707313 3.6663C0.720566 3.63638 0.740075 3.6092 0.764712 3.58633C0.789349 3.56346 0.818626 3.54535 0.85085 3.53304C0.883073 3.52074 0.917605 3.51449 0.952447 3.51465H2.10363C2.17389 3.51465 2.24128 3.54057 2.29097 3.58669C2.34066 3.63282 2.36857 3.69538 2.36857 3.76062C2.36857 3.82585 2.34066 3.88841 2.29097 3.93454C2.24128 3.98067 2.17389 4.00658 2.10363 4.00658H1.21739V17.44H11.1475V16.4058C11.1475 16.3405 11.1754 16.278 11.2251 16.2318C11.2748 16.1857 11.3421 16.1598 11.4124 16.1598C11.4827 16.1598 11.5501 16.1857 11.5998 16.2318C11.6494 16.278 11.6774 16.3405 11.6774 16.4058V17.686C11.677 17.7511 11.649 17.8135 11.5994 17.8596C11.5498 17.9056 11.4826 17.9317 11.4124 17.932Z" fill="#248D88"/>
<path d="M24.0476 17.9317H20.8987C20.8285 17.9317 20.7611 17.9058 20.7114 17.8597C20.6617 17.8136 20.6338 17.751 20.6338 17.6858C20.6338 17.6205 20.6617 17.558 20.7114 17.5118C20.7611 17.4657 20.8285 17.4398 20.8987 17.4398H23.7826V4.00634H22.8964C22.8261 4.00634 22.7587 3.98043 22.7091 3.9343C22.6594 3.88817 22.6315 3.82561 22.6315 3.76037C22.6315 3.69514 22.6594 3.63258 22.7091 3.58645C22.7587 3.54032 22.8261 3.51441 22.8964 3.51441H24.0476C24.0824 3.51424 24.117 3.5205 24.1492 3.5328C24.1814 3.5451 24.2107 3.56321 24.2353 3.58609C24.26 3.60896 24.2795 3.63614 24.2927 3.66605C24.306 3.69597 24.3127 3.72803 24.3125 3.76037V17.6858C24.3125 17.751 24.2846 17.8136 24.2349 17.8597C24.1852 17.9058 24.1179 17.9317 24.0476 17.9317Z" fill="#248D88"/>
<path d="M18.331 17.9319H13.5872C13.517 17.9315 13.4499 17.9055 13.4003 17.8595C13.3506 17.8134 13.3226 17.751 13.3223 17.6859V16.4056C13.3223 16.3404 13.3502 16.2778 13.3999 16.2317C13.4496 16.1856 13.5169 16.1597 13.5872 16.1597C13.6575 16.1597 13.7249 16.1856 13.7746 16.2317C13.8242 16.2778 13.8522 16.3404 13.8522 16.4056V17.4399H18.331C18.4013 17.4399 18.4687 17.4658 18.5184 17.512C18.568 17.5581 18.596 17.6207 18.596 17.6859C18.596 17.7511 18.568 17.8137 18.5184 17.8598C18.4687 17.9059 18.4013 17.9319 18.331 17.9319Z" fill="#248D88"/>
<path d="M13.5876 17.932H11.4124C11.3421 17.932 11.2747 17.9061 11.2251 17.86C11.1754 17.8138 11.1475 17.7513 11.1475 17.686C11.1475 17.6208 11.1754 17.5582 11.2251 17.5121C11.2747 17.466 11.3421 17.4401 11.4124 17.4401H13.5876C13.6579 17.4401 13.7252 17.466 13.7749 17.5121C13.8246 17.5582 13.8525 17.6208 13.8525 17.686C13.8525 17.7513 13.8246 17.8138 13.7749 17.86C13.7252 17.9061 13.6579 17.932 13.5876 17.932Z" fill="#248D88"/>
<path d="M20.8987 19.4998C20.8365 19.4997 20.7765 19.4793 20.7291 19.442L19.615 18.5786L18.5022 19.442C18.4636 19.4722 18.4165 19.4916 18.3664 19.4978C18.3164 19.504 18.2654 19.4968 18.2196 19.477C18.1738 19.4573 18.1351 19.4257 18.1079 19.3862C18.0808 19.3466 18.0664 19.3007 18.0664 19.2538V15.857C18.0663 15.8234 18.0737 15.7902 18.088 15.7593C18.1023 15.7285 18.1232 15.7007 18.1495 15.6776C18.1759 15.6546 18.207 15.6368 18.241 15.6253C18.275 15.6139 18.3111 15.609 18.3472 15.611C19.2308 15.6567 20.1074 15.7819 20.9649 15.9849C21.0217 15.9987 21.072 16.0297 21.108 16.0728C21.1439 16.116 21.1635 16.1689 21.1636 16.2235V19.2538C21.1634 19.3005 21.149 19.3461 21.1221 19.3855C21.0951 19.4249 21.0567 19.4564 21.0113 19.4764C20.9759 19.4914 20.9375 19.4994 20.8987 19.4998ZM19.615 18.0129C19.677 18.0125 19.7371 18.0325 19.7846 18.0695L20.6337 18.7274V16.4166C19.9641 16.2676 19.2828 16.1681 18.5963 16.119V18.7274L19.4454 18.0695C19.493 18.0327 19.5531 18.0127 19.615 18.0129Z" fill="#248D88"/>
<path d="M22.6781 17.0168C22.6431 17.0173 22.6083 17.011 22.5761 16.9983C21.2203 16.4807 19.7808 16.1777 18.3171 16.1018C16.7449 16.0197 15.1697 16.2022 13.6674 16.6404C13.3084 16.745 12.9494 16.8655 12.601 16.9983C12.561 17.0141 12.5173 17.0203 12.4741 17.0164C12.4308 17.0126 12.3893 16.9987 12.3533 16.9762C12.3169 16.9536 12.2871 16.9231 12.2665 16.8873C12.2459 16.8514 12.2352 16.8114 12.2354 16.7708V2.68061C12.2352 2.6318 12.2507 2.58406 12.28 2.54352C12.3093 2.50297 12.3509 2.47148 12.3996 2.45309C15.7239 1.1823 19.4544 1.1823 22.7788 2.45309C22.8275 2.47148 22.8691 2.50297 22.8984 2.54352C22.9277 2.58406 22.9432 2.6318 22.943 2.68061V16.7708C22.9432 16.8031 22.9365 16.8352 22.9232 16.8651C22.91 16.895 22.8905 16.9222 22.8658 16.9451C22.8412 16.968 22.8119 16.9861 22.7797 16.9984C22.7475 17.0107 22.7129 17.0169 22.6781 17.0168ZM12.7652 2.84663V16.4105C13.0103 16.3244 13.2594 16.2444 13.5097 16.1719C16.4223 15.3215 19.5583 15.4055 22.4132 16.4105V2.84663C19.3143 1.70693 15.8641 1.70693 12.7652 2.84663Z" fill="#248D88"/>
<path d="M20.9211 5.42305C20.89 5.42294 20.8591 5.41795 20.8297 5.4083C18.7381 4.69174 16.4396 4.69174 14.3479 5.4083C14.3152 5.41944 14.2805 5.42449 14.2456 5.42317C14.2108 5.42185 14.1766 5.41417 14.145 5.40058C14.1134 5.38699 14.085 5.36775 14.0614 5.34397C14.0378 5.32018 14.0195 5.29231 14.0075 5.26194C13.9955 5.23158 13.99 5.19932 13.9914 5.16701C13.9929 5.13469 14.0011 5.10295 14.0158 5.0736C14.0304 5.04425 14.0511 5.01787 14.0767 4.99595C14.1024 4.97404 14.1324 4.95702 14.1651 4.94588C16.375 4.18992 18.8027 4.18992 21.0126 4.94588C21.0712 4.96564 21.1205 5.00399 21.1517 5.05416C21.1828 5.10434 21.1939 5.16312 21.183 5.22015C21.1721 5.27719 21.1398 5.32881 21.0919 5.36593C21.044 5.40305 20.9835 5.42328 20.9211 5.42305Z" fill="#248D88"/>
<path d="M20.9214 8.03023C20.8901 8.0303 20.8591 8.02488 20.83 8.01424C18.7383 7.29768 16.4398 7.29768 14.3481 8.01424C14.3151 8.02712 14.2796 8.03367 14.2438 8.03347C14.208 8.03327 14.1726 8.02634 14.1398 8.01309C14.107 7.99983 14.0774 7.98054 14.0528 7.95637C14.0282 7.9322 14.0091 7.90365 13.9968 7.87245C13.9844 7.84126 13.979 7.80806 13.9808 7.77486C13.9827 7.74166 13.9917 7.70915 14.0075 7.6793C14.0232 7.64944 14.0453 7.62287 14.0725 7.60117C14.0996 7.57947 14.1312 7.5631 14.1653 7.55305C16.3749 6.79547 18.8032 6.79547 21.0128 7.55305C21.0714 7.57281 21.1207 7.61116 21.1519 7.66134C21.1831 7.71151 21.1942 7.77029 21.1832 7.82733C21.1723 7.88436 21.1401 7.93598 21.0922 7.9731C21.0442 8.01022 20.9838 8.03045 20.9214 8.03023Z" fill="#248D88"/>
<path d="M20.9214 10.6367C20.8902 10.6366 20.8593 10.6316 20.83 10.6219C18.7383 9.90535 16.4398 9.90535 14.3481 10.6219C14.3151 10.6348 14.2796 10.6413 14.2438 10.6411C14.208 10.6409 14.1726 10.634 14.1398 10.6208C14.107 10.6075 14.0774 10.5882 14.0528 10.564C14.0282 10.5399 14.0091 10.5113 13.9968 10.4801C13.9844 10.4489 13.979 10.4157 13.9808 10.3825C13.9827 10.3493 13.9917 10.3168 14.0075 10.287C14.0232 10.2571 14.0453 10.2305 14.0725 10.2088C14.0996 10.1871 14.1312 10.1708 14.1653 10.1607C16.3749 9.40313 18.8032 9.40313 21.0128 10.1607C21.0705 10.181 21.1188 10.2195 21.1493 10.2694C21.1798 10.3192 21.1905 10.3774 21.1797 10.4339C21.1688 10.4903 21.1371 10.5415 21.0899 10.5785C21.0428 10.6156 20.9831 10.6361 20.9214 10.6367Z" fill="#248D88"/>
<path d="M20.9211 13.2437C20.89 13.2436 20.8591 13.2386 20.8297 13.229C18.7381 12.5124 16.4396 12.5124 14.3479 13.229C14.3152 13.2401 14.2805 13.2452 14.2456 13.2438C14.2108 13.2425 14.1766 13.2348 14.145 13.2213C14.1134 13.2077 14.085 13.1884 14.0614 13.1646C14.0378 13.1409 14.0195 13.113 14.0075 13.0826C13.9955 13.0523 13.99 13.02 13.9914 12.9877C13.9929 12.9554 14.0011 12.9236 14.0158 12.8943C14.0304 12.8649 14.0511 12.8385 14.0767 12.8166C14.1024 12.7947 14.1324 12.7777 14.1651 12.7666C16.375 12.0106 18.8027 12.0106 21.0126 12.7666C21.0712 12.7863 21.1205 12.8247 21.1517 12.8748C21.1828 12.925 21.1939 12.9838 21.183 13.0408C21.1721 13.0979 21.1398 13.1495 21.0919 13.1866C21.044 13.2237 20.9835 13.244 20.9211 13.2437Z" fill="#248D88"/>
</svg>
