<svg width="25" height="25" viewBox="0 0 25 25" fill="none" xmlns="http://www.w3.org/2000/svg">
<path d="M12.4121 24.5C10.7861 24.5 9.25211 23.786 8.20411 22.541C6.66411 22.717 5.07711 22.136 3.92711 20.986C2.77811 19.836 2.19811 18.246 2.33711 16.624C1.12611 15.66 0.412109 14.126 0.412109 12.5C0.412109 10.874 1.12611 9.34 2.37211 8.292C2.19711 6.755 2.77711 5.165 3.92711 4.015C5.07711 2.865 6.66411 2.282 8.28811 2.425C9.25211 1.215 10.7861 0.5 12.4121 0.5C14.0381 0.5 15.5721 1.214 16.6201 2.459C18.1621 2.286 19.7471 2.864 20.8971 4.014C22.0461 5.164 22.6261 6.754 22.4871 8.376C23.6981 9.34 24.4121 10.874 24.4121 12.5C24.4121 14.126 23.6981 15.66 22.4521 16.708C22.6271 18.245 22.0471 19.835 20.8971 20.985C19.7461 22.135 18.1561 22.711 16.5361 22.575C15.5721 23.785 14.0381 24.5 12.4121 24.5ZM8.28511 20.576C8.84611 20.576 9.36611 20.817 9.73311 21.252C10.4011 22.045 11.3771 22.5 12.4121 22.5C13.4471 22.5 14.4231 22.045 15.0911 21.252C15.4941 20.773 16.0811 20.531 16.7071 20.582C17.7411 20.669 18.7511 20.302 19.4831 19.57C20.2141 18.839 20.5831 17.827 20.4951 16.794C20.4411 16.17 20.6851 15.581 21.1651 15.177C21.9571 14.51 22.4121 13.533 22.4121 12.499C22.4121 11.465 21.9571 10.488 21.1651 9.821C20.6861 9.418 20.4411 8.828 20.4951 8.204C20.5831 7.171 20.2151 6.159 19.4831 5.428C18.7511 4.697 17.7351 4.334 16.7081 4.416C16.0821 4.472 15.4941 4.225 15.0911 3.747C14.4231 2.954 13.4471 2.499 12.4121 2.499C11.3771 2.499 10.4011 2.954 9.73311 3.747C9.32911 4.226 8.74011 4.466 8.11711 4.417C7.07811 4.327 6.07311 4.697 5.34111 5.429C4.61011 6.16 4.24111 7.172 4.32911 8.205C4.38311 8.829 4.13911 9.418 3.65911 9.822C2.86711 10.489 2.41211 11.466 2.41211 12.5C2.41211 13.534 2.86711 14.511 3.65911 15.178C4.13811 15.581 4.38311 16.171 4.32911 16.795C4.24111 17.828 4.60911 18.84 5.34111 19.571C6.07311 20.302 7.09411 20.666 8.11611 20.583C8.17311 20.578 8.22911 20.576 8.28511 20.576ZM13.2131 15.635L17.9521 11.067C18.3491 10.684 18.3611 10.05 17.9771 9.653C17.5941 9.256 16.9611 9.244 16.5631 9.627L11.8111 14.208C11.4201 14.599 10.7891 14.599 10.3711 14.183L8.09311 12.066C7.69111 11.691 7.05711 11.713 6.68011 12.118C6.30411 12.522 6.32711 13.155 6.73211 13.531L8.98411 15.623C9.57011 16.209 10.3411 16.502 11.1101 16.502C11.8751 16.502 12.6361 16.213 13.2141 15.636L13.2131 15.635Z" fill="#248D88"/>
</svg>
